<?xml version="1.0" encoding="UTF-8" standalone="no"?>
<!-- Created with Inkscape (http://www.inkscape.org/) -->

<svg
   width="245.99478mm"
   height="50.016918mm"
   viewBox="0 0 245.99478 50.016918"
   version="1.1"
   id="svg1"
   xml:space="preserve"
   inkscape:version="1.3 (0e150ed6c4, 2023-07-21)"
   sodipodi:docname="cct-logo.svg"
   xmlns:inkscape="http://www.inkscape.org/namespaces/inkscape"
   xmlns:sodipodi="http://sodipodi.sourceforge.net/DTD/sodipodi-0.dtd"
   xmlns="http://www.w3.org/2000/svg"
   xmlns:svg="http://www.w3.org/2000/svg"><sodipodi:namedview
     id="namedview1"
     pagecolor="#ffffff"
     bordercolor="#000000"
     borderopacity="0.25"
     inkscape:showpageshadow="2"
     inkscape:pageopacity="0.0"
     inkscape:pagecheckerboard="0"
     inkscape:deskcolor="#d1d1d1"
     inkscape:document-units="mm"
     inkscape:zoom="1.1458394"
     inkscape:cx="1030.6855"
     inkscape:cy="507.48824"
     inkscape:window-width="3840"
     inkscape:window-height="2054"
     inkscape:window-x="-11"
     inkscape:window-y="-11"
     inkscape:window-maximized="1"
     inkscape:current-layer="layer-MC8"><inkscape:page
       x="9.3790464e-07"
       y="-6.2390461e-07"
       width="245.99478"
       height="50.016918"
       id="page3"
       margin="0"
       bleed="0" /></sodipodi:namedview><defs
     id="defs1"><clipPath
       clipPathUnits="userSpaceOnUse"
       id="clipPath1105"><path
         d="M 0,595.275 H 841.89 V 0 H 0 Z"
         transform="translate(-117.0049,-281.78521)"
         id="path1105" /></clipPath><clipPath
       clipPathUnits="userSpaceOnUse"
       id="clipPath1107"><path
         d="M 0,595.275 H 841.89 V 0 H 0 Z"
         transform="translate(-117.0039,-370.18461)"
         id="path1107" /></clipPath><clipPath
       clipPathUnits="userSpaceOnUse"
       id="clipPath1109"><path
         d="M 0,595.275 H 841.89 V 0 H 0 Z"
         transform="translate(-188.95851,-379.50781)"
         id="path1109" /></clipPath><clipPath
       clipPathUnits="userSpaceOnUse"
       id="clipPath1111"><path
         d="M 0,595.275 H 841.89 V 0 H 0 Z"
         transform="translate(-282.05761,-343.06791)"
         id="path1111" /></clipPath><clipPath
       clipPathUnits="userSpaceOnUse"
       id="clipPath1113"><path
         d="M 0,595.275 H 841.89 V 0 H 0 Z"
         transform="translate(-315.42771,-368.47801)"
         id="path1113" /></clipPath><clipPath
       clipPathUnits="userSpaceOnUse"
       id="clipPath1115"><path
         d="M 0,595.275 H 841.89 V 0 H 0 Z"
         transform="translate(-387.29741,-327.67091)"
         id="path1115" /></clipPath><clipPath
       clipPathUnits="userSpaceOnUse"
       id="clipPath1117"><path
         d="M 0,595.275 H 841.89 V 0 H 0 Z"
         transform="translate(-645.40432,-327.67091)"
         id="path1117" /></clipPath><clipPath
       clipPathUnits="userSpaceOnUse"
       id="clipPath1119"><path
         d="M 0,595.275 H 841.89 V 0 H 0 Z"
         transform="translate(-480.20801,-343.06791)"
         id="path1119" /></clipPath><clipPath
       clipPathUnits="userSpaceOnUse"
       id="clipPath1121"><path
         d="M 0,595.275 H 841.89 V 0 H 0 Z"
         transform="translate(-513.57811,-368.47801)"
         id="path1121" /></clipPath><clipPath
       clipPathUnits="userSpaceOnUse"
       id="clipPath1123"><path
         d="M 0,595.275 H 841.89 V 0 H 0 Z"
         transform="translate(-575.93951,-327.67091)"
         id="path1123" /></clipPath><clipPath
       clipPathUnits="userSpaceOnUse"
       id="clipPath1125"><path
         d="M 0,595.275 H 841.89 V 0 H 0 Z"
         transform="translate(-633.12112,-343.06591)"
         id="path1125" /></clipPath><clipPath
       clipPathUnits="userSpaceOnUse"
       id="clipPath1127"><path
         d="M 0,595.275 H 841.89 V 0 H 0 Z"
         transform="translate(-703.22662,-367.19041)"
         id="path1127" /></clipPath><clipPath
       clipPathUnits="userSpaceOnUse"
       id="clipPath1129"><path
         d="M 0,595.275 H 841.89 V 0 H 0 Z"
         transform="translate(-746.09962,-367.49711)"
         id="path1129" /></clipPath><clipPath
       clipPathUnits="userSpaceOnUse"
       id="clipPath1131"><path
         d="M 0,595.275 H 841.89 V 0 H 0 Z"
         transform="translate(-356.05031,-355.34721)"
         id="path1131" /></clipPath><clipPath
       clipPathUnits="userSpaceOnUse"
       id="clipPath1133"><path
         d="M 0,595.275 H 841.89 V 0 H 0 Z"
         transform="translate(-258.17581,-307.26761)"
         id="path1133" /></clipPath><clipPath
       clipPathUnits="userSpaceOnUse"
       id="clipPath1135"><path
         d="M 0,595.275 H 841.89 V 0 H 0 Z"
         transform="translate(-276.9712,-274.95901)"
         id="path1135" /></clipPath><clipPath
       clipPathUnits="userSpaceOnUse"
       id="clipPath1137"><path
         d="M 0,595.275 H 841.89 V 0 H 0 Z"
         transform="translate(-596.65432,-274.95901)"
         id="path1137" /></clipPath><clipPath
       clipPathUnits="userSpaceOnUse"
       id="clipPath1139"><path
         d="M 0,595.275 H 841.89 V 0 H 0 Z"
         transform="translate(-304.90331,-293.09571)"
         id="path1139" /></clipPath><clipPath
       clipPathUnits="userSpaceOnUse"
       id="clipPath1141"><path
         d="M 0,595.275 H 841.89 V 0 H 0 Z"
         transform="translate(-725.66602,-293.09571)"
         id="path1141" /></clipPath><clipPath
       clipPathUnits="userSpaceOnUse"
       id="clipPath1143"><path
         d="M 0,595.275 H 841.89 V 0 H 0 Z"
         transform="translate(-370.95121,-274.95901)"
         id="path1143" /></clipPath><clipPath
       clipPathUnits="userSpaceOnUse"
       id="clipPath1145"><path
         d="M 0,595.275 H 841.89 V 0 H 0 Z"
         transform="translate(-410.14701,-274.95901)"
         id="path1145" /></clipPath><clipPath
       clipPathUnits="userSpaceOnUse"
       id="clipPath1147"><path
         d="M 0,595.275 H 841.89 V 0 H 0 Z"
         transform="translate(-443.72661,-308.00391)"
         id="path1147" /></clipPath><clipPath
       clipPathUnits="userSpaceOnUse"
       id="clipPath1149"><path
         d="M 0,595.275 H 841.89 V 0 H 0 Z"
         transform="translate(-470.87701,-274.95901)"
         id="path1149" /></clipPath><clipPath
       clipPathUnits="userSpaceOnUse"
       id="clipPath1151"><path
         d="M 0,595.275 H 841.89 V 0 H 0 Z"
         transform="translate(-513.65041,-308.00391)"
         id="path1151" /></clipPath><clipPath
       clipPathUnits="userSpaceOnUse"
       id="clipPath1153"><path
         d="M 0,595.275 H 841.89 V 0 H 0 Z"
         transform="translate(-559.53521,-274.21971)"
         id="path1153" /></clipPath><clipPath
       clipPathUnits="userSpaceOnUse"
       id="clipPath1155"><path
         d="M 0,595.275 H 841.89 V 0 H 0 Z"
         id="path1155" /></clipPath><clipPath
       clipPathUnits="userSpaceOnUse"
       id="clipPath1157"><path
         d="M 0,595.275 H 841.89 V 0 H 0 Z"
         transform="translate(-635.44342,-274.21971)"
         id="path1157" /></clipPath><clipPath
       clipPathUnits="userSpaceOnUse"
       id="clipPath1159"><path
         d="M 0,595.275 H 841.89 V 0 H 0 Z"
         id="path1159" /></clipPath><clipPath
       clipPathUnits="userSpaceOnUse"
       id="clipPath1161"><path
         d="M 0,595.275 H 841.89 V 0 H 0 Z"
         transform="translate(-711.29882,-274.95901)"
         id="path1161" /></clipPath><clipPath
       clipPathUnits="userSpaceOnUse"
       id="clipPath1163"><path
         d="M 0,595.275 H 841.89 V 0 H 0 Z"
         id="path1163" /></clipPath></defs><g
     id="layer-MC8"
     inkscape:groupmode="layer"
     inkscape:label="1-logo_1"
     transform="matrix(0.26458333,0,0,0.26458334,-25.731572,-69.99127)"
     sodipodi:insensitive="true"><path
       id="path1104"
       d="m 0,0 c -11.33,6.541 -19.203,16.771 -22.976,28.3 -0.263,0.795 -0.805,1.492 -1.587,1.943 -0.557,0.322 -1.165,0.475 -1.764,0.477 l -17.737,0.002 c 3.772,-19.451 15.636,-37.222 34.143,-47.908 18.507,-10.683 39.83,-12.072 58.562,-5.615 l -8.872,15.36 c -0.3,0.519 -0.737,0.968 -1.293,1.291 -0.783,0.451 -1.658,0.572 -2.479,0.402 C 24.128,-8.244 11.331,-6.543 0,0"
       style="fill:#1f5ab1;fill-opacity:1;fill-rule:nonzero;stroke:none"
       transform="matrix(1.3333333,0,0,-1.3333333,156.00653,417.9864)"
       clip-path="url(#clipPath1105)" /><path
       id="path1106"
       d="m 0,0 c 11.332,6.542 24.129,8.243 35.998,5.747 0.82,-0.169 1.695,-0.049 2.479,0.402 0.556,0.323 0.992,0.772 1.293,1.29 l 8.871,15.36 C 29.908,29.257 8.586,27.869 -9.92,17.185 -28.428,6.499 -40.291,-11.272 -44.064,-30.724 l 17.738,0.002 c 0.599,0.002 1.207,0.154 1.763,0.476 0.782,0.452 1.324,1.149 1.587,1.946 C -19.203,-16.773 -11.33,-6.542 0,0"
       style="fill:#1f5ab1;fill-opacity:1;fill-rule:nonzero;stroke:none"
       transform="matrix(1.3333333,0,0,-1.3333333,156.0052,300.12053)"
       clip-path="url(#clipPath1107)" /><path
       id="path1108"
       d="m 0,0 -8.865,-15.363 c -0.301,-0.52 -0.471,-1.122 -0.471,-1.765 0,-0.903 0.334,-1.722 0.891,-2.348 5.996,-6.688 10.248,-14.967 12.054,-24.128 h -25.923 c -1.309,0.004 -2.449,0.715 -3.061,1.771 -4.113,7.397 -12.008,12.403 -21.073,12.403 -13.307,0 -24.094,-10.787 -24.094,-24.094 0,-13.307 10.787,-24.096 24.094,-24.096 9.065,0 16.96,5.006 21.073,12.404 0.612,1.059 1.756,1.77 3.068,1.77 H 3.609 c -1.806,-9.158 -6.058,-17.439 -12.054,-24.126 -0.557,-0.625 -0.891,-1.444 -0.891,-2.348 0,-0.643 0.17,-1.244 0.471,-1.764 L 0,-107.047 c 14.959,12.992 24.418,32.154 24.418,53.523 0,21.37 -9.459,40.53 -24.418,53.524"
       style="fill:#231f20;fill-opacity:1;fill-rule:nonzero;stroke:none"
       transform="matrix(1.3333333,0,0,-1.3333333,251.94467,287.6896)"
       clip-path="url(#clipPath1109)" /><path
       id="path1110"
       d="m 0,0 c -2.625,-2.613 -5.023,-4.4 -7.179,-5.373 -2.161,-0.977 -4.55,-1.467 -7.175,-1.467 -3.073,0 -5.854,0.697 -8.36,2.095 -2.51,1.398 -4.439,3.313 -5.808,5.762 -1.369,2.448 -2.057,5.248 -2.057,8.424 0.003,4.55 1.544,8.34 4.642,11.443 3.102,3.1 6.885,4.638 11.42,4.64 5.367,-0.002 10.185,-2.259 14.51,-6.832 l 0.209,-0.222 6.845,6.536 -0.188,0.219 c -2.692,3.133 -5.902,5.553 -9.621,7.25 -3.718,1.7 -7.591,2.552 -11.609,2.552 -4.724,0 -9.142,-1.152 -13.236,-3.452 -4.093,-2.298 -7.252,-5.348 -9.451,-9.137 -2.203,-3.787 -3.302,-8.124 -3.302,-12.98 -0.003,-7.502 2.417,-13.696 7.249,-18.507 4.824,-4.818 11.047,-7.229 18.595,-7.229 h 0.015 c 4.095,0 7.751,0.678 10.961,2.043 3.216,1.368 6.605,3.805 10.185,7.302 l 0.216,0.209 -6.642,6.943 z"
       style="fill:#231f20;fill-opacity:1;fill-rule:nonzero;stroke:none"
       transform="matrix(1.3333333,0,0,-1.3333333,376.0768,336.27613)"
       clip-path="url(#clipPath1111)" /><path
       id="path1112"
       d="m 0,0 c -8.641,0 -15.136,-6.995 -15.136,-16.321 0,-8.9 6.679,-15.956 15.136,-15.956 8.455,0 15.071,7.056 15.071,16.141 C 15.071,-7.058 8.455,0 0,0 m -0.062,-41.788 c -14.705,0 -25.428,10.924 -25.428,25.895 0,14.486 10.967,25.407 25.428,25.407 14.643,0 25.488,-10.921 25.488,-25.65 0,-14.728 -10.845,-25.652 -25.488,-25.652"
       style="fill:#231f20;fill-opacity:1;fill-rule:nonzero;stroke:none"
       transform="matrix(1.3333333,0,0,-1.3333333,420.57027,302.396)"
       clip-path="url(#clipPath1113)" /><path
       id="path1114"
       d="M 0,0 V 49.338 H 32.847 V 39.826 H 10.356 V 29.302 H 30.21 V 20.038 H 10.356 V 9.514 H 32.847 V 0 Z"
       style="fill:#231f20;fill-opacity:1;fill-rule:nonzero;stroke:none"
       transform="matrix(1.3333333,0,0,-1.3333333,516.39653,356.80547)"
       clip-path="url(#clipPath1115)" /><path
       id="path1116"
       d="M 0,0 V 49.338 H 32.84 V 39.826 H 10.354 V 29.302 H 30.207 V 20.038 H 10.354 V 9.514 H 32.84 V 0 Z"
       style="fill:#231f20;fill-opacity:1;fill-rule:nonzero;stroke:none"
       transform="matrix(1.3333333,0,0,-1.3333333,860.53907,356.80547)"
       clip-path="url(#clipPath1117)" /><path
       id="path1118"
       d="m 0,0 c -2.626,-2.611 -5.024,-4.4 -7.177,-5.373 -2.162,-0.977 -4.551,-1.467 -7.175,-1.467 -3.076,0 -5.856,0.697 -8.364,2.095 -2.507,1.398 -4.435,3.313 -5.807,5.762 -1.367,2.448 -2.054,5.248 -2.054,8.424 0,4.55 1.542,8.34 4.639,11.443 3.103,3.1 6.886,4.638 11.42,4.64 5.369,-0.002 10.187,-2.261 14.512,-6.832 l 0.21,-0.222 6.843,6.536 -0.189,0.219 c -2.691,3.133 -5.902,5.553 -9.619,7.25 -3.719,1.7 -7.592,2.552 -11.607,2.552 -4.723,0 -9.145,-1.152 -13.238,-3.452 -4.094,-2.298 -7.248,-5.348 -9.45,-9.137 -2.205,-3.787 -3.304,-8.124 -3.304,-12.98 -0.002,-7.502 2.42,-13.696 7.252,-18.507 4.821,-4.818 11.046,-7.229 18.59,-7.229 h 0.015 c 4.098,0 7.754,0.678 10.963,2.043 3.215,1.368 6.606,3.805 10.186,7.302 l 0.216,0.209 -6.644,6.941 z"
       style="fill:#231f20;fill-opacity:1;fill-rule:nonzero;stroke:none"
       transform="matrix(1.3333333,0,0,-1.3333333,640.27733,336.27613)"
       clip-path="url(#clipPath1119)" /><path
       id="path1120"
       d="m 0,0 c -8.641,0 -15.138,-6.995 -15.138,-16.321 0,-8.9 6.681,-15.956 15.138,-15.956 8.455,0 15.07,7.056 15.07,16.141 C 15.07,-7.058 8.455,0 0,0 m -0.062,-41.788 c -14.706,0 -25.427,10.924 -25.427,25.895 0,14.486 10.968,25.407 25.427,25.407 14.644,0 25.49,-10.921 25.49,-25.65 0,-14.728 -10.846,-25.652 -25.49,-25.652"
       style="fill:#231f20;fill-opacity:1;fill-rule:nonzero;stroke:none"
       transform="matrix(1.3333333,0,0,-1.3333333,684.7708,302.396)"
       clip-path="url(#clipPath1121)" /><path
       id="path1122"
       d="M 0,0 -21.564,33.569 V 0 h -10.358 v 49.338 h 11.457 L 1.105,15.769 V 49.338 H 11.457 V 0 Z"
       style="fill:#231f20;fill-opacity:1;fill-rule:nonzero;stroke:none"
       transform="matrix(1.3333333,0,0,-1.3333333,767.91933,356.80547)"
       clip-path="url(#clipPath1123)" /><path
       id="path1124"
       d="m 0,0 c -2.623,-2.609 -5.021,-4.4 -7.176,-5.373 -2.164,-0.977 -4.549,-1.47 -7.174,-1.47 -3.076,0 -5.851,0.702 -8.361,2.102 -2.506,1.398 -4.435,3.311 -5.809,5.76 -1.367,2.446 -2.052,5.248 -2.052,8.424 0.002,4.553 1.54,8.343 4.636,11.445 3.104,3.098 6.887,4.638 11.422,4.641 5.368,-0.003 10.184,-2.262 14.51,-6.835 l 0.209,-0.222 6.844,6.533 -0.188,0.219 c -2.685,3.133 -5.898,5.556 -9.617,7.255 -3.721,1.698 -7.592,2.548 -11.611,2.548 -4.723,0 -9.141,-1.15 -13.238,-3.453 -4.092,-2.295 -7.249,-5.345 -9.448,-9.136 -2.207,-3.788 -3.301,-8.122 -3.301,-12.979 -0.003,-7.499 2.411,-13.689 7.243,-18.506 4.829,-4.82 11.056,-7.231 18.613,-7.229 4.096,0 7.754,0.681 10.963,2.046 3.215,1.368 6.607,3.8 10.185,7.299 l 0.215,0.212 -6.644,6.938 z"
       style="fill:#231f20;fill-opacity:1;fill-rule:nonzero;stroke:none"
       transform="matrix(1.3333333,0,0,-1.3333333,844.16147,336.2788)"
       clip-path="url(#clipPath1125)" /><path
       id="path1126"
       d="m 0,0 c -0.916,0.248 -1.713,0.307 -4.348,0.307 h -4.045 v -12.15 h 4.045 c 3.123,0 3.735,0.062 4.84,0.49 2.143,0.8 3.311,2.824 3.311,5.583 C 3.803,-2.76 2.455,-0.735 0,0 m 6.373,-19.515 c -2.937,-1.409 -5.33,-1.838 -10.66,-1.838 H -8.393 V -39.52 H -18.748 V 9.819 h 14.826 c 4.904,0 7.537,-0.49 10.481,-2.086 4.779,-2.576 7.539,-7.671 7.539,-13.808 0,-6.197 -2.76,-11.045 -7.725,-13.44"
       style="fill:#231f20;fill-opacity:1;fill-rule:nonzero;stroke:none"
       transform="matrix(1.3333333,0,0,-1.3333333,937.63547,304.1128)"
       clip-path="url(#clipPath1127)" /><path
       id="path1128"
       d="M 0,0 V -39.826 H -10.355 V 0 H -25.242 V 9.512 H 14.889 V 0 Z"
       style="fill:#231f20;fill-opacity:1;fill-rule:nonzero;stroke:none"
       transform="matrix(1.3333333,0,0,-1.3333333,994.79947,303.70387)"
       clip-path="url(#clipPath1129)" /><path
       id="path1130"
       d="m 0,0 v 12.15 h 7.353 c 2.635,0 3.431,-0.059 4.35,-0.307 2.45,-0.735 3.798,-2.76 3.798,-5.77 0,-2.759 -1.164,-4.782 -3.308,-5.582 C 11.09,0.062 10.478,0 7.353,0 Z m 18.075,-7.671 c 4.962,2.395 7.719,7.242 7.719,13.44 0,6.136 -2.757,11.231 -7.537,13.808 -2.939,1.595 -5.574,2.085 -10.476,2.085 H -10.354 V -27.676 H 0 V -9.51 H 2.283 L 13.541,-27.676 H 25.794 L 13.249,-9.181 c 1.812,0.276 3.242,0.749 4.826,1.51"
       style="fill:#231f20;fill-opacity:1;fill-rule:nonzero;stroke:none"
       transform="matrix(1.3333333,0,0,-1.3333333,474.73373,319.90373)"
       clip-path="url(#clipPath1131)" /><path
       id="path1132"
       d="M 0,0 V -32.309 H -4.32 V 0 H -16.452 V 3.958 H 12.177 V 0 Z"
       style="fill:#231f20;fill-opacity:1;fill-rule:nonzero;stroke:none"
       transform="matrix(1.3333333,0,0,-1.3333333,344.2344,384.00987)"
       clip-path="url(#clipPath1133)" /><path
       id="path1134"
       d="M 0,0 V 36.267 H 22.563 V 32.309 H 4.319 V 20.116 h 15.999 v -3.96 H 4.319 V 3.959 H 22.563 V 0 Z"
       style="fill:#231f20;fill-opacity:1;fill-rule:nonzero;stroke:none"
       transform="matrix(1.3333333,0,0,-1.3333333,369.29493,427.088)"
       clip-path="url(#clipPath1135)" /><path
       id="path1136"
       d="M 0,0 V 36.267 H 22.559 V 32.309 H 4.314 V 20.116 h 15.998 v -3.96 H 4.314 V 3.959 H 22.559 V 0 Z"
       style="fill:#231f20;fill-opacity:1;fill-rule:nonzero;stroke:none"
       transform="matrix(1.3333333,0,0,-1.3333333,795.53907,427.088)"
       clip-path="url(#clipPath1137)" /><path
       id="path1138"
       d="m 0,0 c 0.047,4.886 1.572,9.094 4.57,12.57 3.629,4.198 8.614,6.297 14.858,6.297 h 0.023 c 3.292,0.003 6.284,-0.621 8.966,-1.87 2.68,-1.246 4.922,-3.018 6.714,-5.301 l 0.19,-0.248 -3.262,-2.48 -0.188,0.219 C 28.582,13.016 24.539,14.908 19.667,14.913 15.222,14.908 11.585,13.494 8.68,10.658 5.78,7.822 4.337,4.313 4.334,0.063 V 0 -0.066 C 4.337,-4.32 5.78,-7.822 8.68,-10.664 c 2.905,-2.835 6.542,-4.25 10.987,-4.25 4.872,0.003 8.915,1.895 12.204,5.725 l 0.188,0.214 3.262,-2.476 -0.19,-0.246 c -1.792,-2.285 -4.034,-4.059 -6.714,-5.303 -2.682,-1.25 -5.674,-1.876 -8.966,-1.876 h -0.023 c -6.244,0 -11.229,2.11 -14.858,6.301 C 1.572,-9.097 0.047,-4.885 0,-0.002 Z"
       style="fill:#231f20;fill-opacity:1;fill-rule:nonzero;stroke:none"
       transform="matrix(1.3333333,0,0,-1.3333333,406.53773,402.90573)"
       clip-path="url(#clipPath1139)" /><path
       id="path1140"
       d="m 0,0 c 0.049,4.886 1.574,9.094 4.57,12.57 3.629,4.198 8.612,6.297 14.86,6.297 h 0.019 c 3.293,0.003 6.285,-0.621 8.971,-1.87 2.678,-1.246 4.92,-3.018 6.715,-5.301 l 0.187,-0.248 -3.263,-2.48 -0.186,0.219 C 28.582,13.016 24.541,14.908 19.666,14.913 15.225,14.908 11.588,13.494 8.682,10.658 5.781,7.822 4.338,4.313 4.334,0.063 V 0 -0.066 c 0.004,-4.254 1.447,-7.756 4.348,-10.598 2.906,-2.835 6.543,-4.25 10.984,-4.25 4.875,0.003 8.916,1.895 12.207,5.725 l 0.186,0.214 3.263,-2.476 -0.187,-0.246 C 33.34,-13.982 31.098,-15.756 28.42,-17 c -2.686,-1.25 -5.678,-1.876 -8.971,-1.876 H 19.43 c -6.248,0 -11.231,2.11 -14.86,6.301 C 1.574,-9.097 0.049,-4.885 0,-0.002 Z"
       style="fill:#231f20;fill-opacity:1;fill-rule:nonzero;stroke:none"
       transform="matrix(1.3333333,0,0,-1.3333333,967.55467,402.90573)"
       clip-path="url(#clipPath1141)" /><path
       id="path1142"
       d="M 0,0 V 16.156 H -17.967 V 0 h -4.318 v 36.267 h 4.318 V 20.111 H 0 V 36.267 H 4.319 V 0 Z"
       style="fill:#231f20;fill-opacity:1;fill-rule:nonzero;stroke:none"
       transform="matrix(1.3333333,0,0,-1.3333333,494.6016,427.088)"
       clip-path="url(#clipPath1143)" /><path
       id="path1144"
       d="M 0,0 -20.635,31.85 V 0 h -4.319 v 36.267 h 6.34 L 2.022,4.419 V 36.267 H 6.343 V 0 Z"
       style="fill:#231f20;fill-opacity:1;fill-rule:nonzero;stroke:none"
       transform="matrix(1.3333333,0,0,-1.3333333,546.86267,427.088)"
       clip-path="url(#clipPath1145)" /><path
       id="path1146"
       d="m 0,0 c -8.27,0 -14.519,-6.489 -14.519,-15.096 0,-8.147 6.433,-14.726 14.474,-14.726 8.135,0 14.475,6.536 14.475,14.912 C 14.43,-6.536 8.09,0 0,0 m -0.045,-33.784 c -10.939,0 -18.796,8.01 -18.796,19.059 0,10.674 8.041,18.684 18.796,18.684 10.844,0 18.793,-7.959 18.793,-18.869 0,-10.864 -7.949,-18.874 -18.793,-18.874"
       style="fill:#231f20;fill-opacity:1;fill-rule:nonzero;stroke:none"
       transform="matrix(1.3333333,0,0,-1.3333333,591.63547,383.02813)"
       clip-path="url(#clipPath1147)" /><path
       id="path1148"
       d="M 0,0 V 36.267 H 4.32 V 3.959 h 16 V 0 Z"
       style="fill:#231f20;fill-opacity:1;fill-rule:nonzero;stroke:none"
       transform="matrix(1.3333333,0,0,-1.3333333,627.836,427.088)"
       clip-path="url(#clipPath1149)" /><path
       id="path1150"
       d="m 0,0 c -8.273,0 -14.523,-6.489 -14.523,-15.096 0,-8.147 6.435,-14.726 14.474,-14.726 8.133,0 14.475,6.536 14.475,14.912 C 14.426,-6.536 8.084,0 0,0 m -0.049,-33.784 c -10.934,0 -18.796,8.01 -18.796,19.059 0,10.674 8.044,18.684 18.796,18.684 10.844,0 18.797,-7.959 18.797,-18.869 0,-10.864 -7.953,-18.874 -18.797,-18.874"
       style="fill:#231f20;fill-opacity:1;fill-rule:nonzero;stroke:none"
       transform="matrix(1.3333333,0,0,-1.3333333,684.8672,383.02813)"
       clip-path="url(#clipPath1151)" /><path
       id="path1152"
       d="m 0,0 c -12.32,0 -20.452,7.505 -20.452,18.921 0,11.047 8.321,18.822 20.038,18.822 4.547,0 8.5,-1.061 12.494,-3.362 l -1.465,-4.143 c -3.359,2.441 -6.847,3.546 -11.125,3.546 -9.373,0 -15.623,-5.936 -15.623,-14.819 0,-9.435 6.158,-15.052 16.545,-15.052 2.757,0 5.377,0.509 7.947,1.474 V 16.296 H -1.748 v 3.959 H 12.634 V 2.533 C 8.684,0.831 4.501,0 0,0"
       style="fill:#231f20;fill-opacity:1;fill-rule:nonzero;stroke:none"
       transform="matrix(1.3333333,0,0,-1.3333333,746.04693,428.07373)"
       clip-path="url(#clipPath1153)" /><path
       id="path1154"
       d="m 582.014,311.226 h 4.503 v -36.267 h -4.503 z"
       style="fill:#231f20;fill-opacity:1;fill-rule:nonzero;stroke:none"
       transform="matrix(1.3333333,0,0,-1.3333333,0,793.7)"
       clip-path="url(#clipPath1155)" /><path
       id="path1156"
       d="m 0,0 c -3.816,0 -7.029,0.922 -10.109,2.903 l 1.291,3.912 c 2.756,-1.978 5.511,-2.902 8.681,-2.902 5.01,0 8.502,2.671 8.502,6.492 0,1.84 -0.918,3.729 -2.344,4.788 -1.33,1.013 -2.892,1.566 -6.384,2.759 -5.887,2.026 -8.274,4.787 -8.274,9.483 0,6.076 4.596,10.308 11.213,10.308 2.805,0 5.42,-0.689 8.086,-2.163 L 9.559,31.484 c -2.159,1.564 -4.362,2.3 -6.846,2.3 -4.182,0 -7.029,-2.486 -7.029,-6.119 0,-3.133 1.605,-4.602 6.752,-6.353 7.859,-2.624 10.25,-5.154 10.25,-10.954 C 12.686,4.284 7.4,0 0,0"
       style="fill:#231f20;fill-opacity:1;fill-rule:nonzero;stroke:none"
       transform="matrix(1.3333333,0,0,-1.3333333,847.25787,428.07373)"
       clip-path="url(#clipPath1157)" /><path
       id="path1158"
       d="m 671.713,311.226 h 4.5 v -36.267 h -4.5 z"
       style="fill:#231f20;fill-opacity:1;fill-rule:nonzero;stroke:none"
       transform="matrix(1.3333333,0,0,-1.3333333,0,793.7)"
       clip-path="url(#clipPath1159)" /><path
       id="path1160"
       d="M 0,0 -20.631,31.85 V 0 h -4.318 v 36.267 h 6.338 L 2.021,4.419 V 36.267 H 6.344 V 0 Z"
       style="fill:#231f20;fill-opacity:1;fill-rule:nonzero;stroke:none"
       transform="matrix(1.3333333,0,0,-1.3333333,948.3984,427.088)"
       clip-path="url(#clipPath1161)" /><path
       id="path1162"
       d="m 770.248,279.975 h -5.01 v -5.016 h 5.01 z"
       style="fill:#231f20;fill-opacity:1;fill-rule:nonzero;stroke:none"
       transform="matrix(1.3333333,0,0,-1.3333333,0,793.7)"
       clip-path="url(#clipPath1163)" /></g></svg>
